<?xml version="1.0" encoding="UTF-8"?>
<svg id="Layer_1" xmlns="http://www.w3.org/2000/svg" version="1.1" viewBox="0 0 1415 784">
  <!-- Generator: Adobe Illustrator 30.0.0, SVG Export Plug-In . SVG Version: 2.1.1 Build 123)  -->
  <defs>
    <style>
      .st0 {
        fill: #111;
      }
    </style>
  </defs>
  <path class="st0" d="M701,86.1L133,391.9l568.3,305.9,568.1-305.8L701,86.1ZM803.5,436.5c.5,55.1-31.4,104.5-65.9,144.9-8.9,10.4-20.2,26.8-32,34.2-11.9,7.5-27.4,4.2-40.8,1.8-29.1-5.3-57.2-17-83.4-30.2-55-27.7-107.1-63-155.8-101.2-21.5-16.9-64.8-44.2-65.5-75.5v-103.4c44.4-22.1,88.8-44.3,133.3-66.4v184.3c0,42.4,53.8,69.9,88.1,79.9,48,14,89.1-7,88.8-60.6V152.4c8.9-4.4,22.5-14.7,33.3-14.1,9.5.6,24.6,12.3,33.3,16.6,22.2,11.1,44.4,22.1,66.6,33.2v248.3ZM908.9,538.7V240.7c44.4,22.1,88.8,44.3,133.3,66.4v167.1c-44.4,21.5-88.8,42.9-133.3,64.4Z"/>
</svg>